<svg width="68" height="32" viewBox="0 0 68 32" fill="none" xmlns="http://www.w3.org/2000/svg">
<g clip-path="url(#clip0)">
<path d="M10.9103 24.3412V22.3404C10.3674 23.0766 9.64524 23.6635 8.81164 24.0461C7.97805 24.4287 7.06035 24.5945 6.14466 24.5279C4.64272 24.5831 3.17718 24.0606 2.05282 23.069C0.340603 21.3895 0 18.6117 0 16.0014C0 13.3911 0.340603 10.6105 2.04546 8.91549C3.16996 7.92421 4.63548 7.40201 6.13729 7.45749C7.04431 7.38842 7.95419 7.54796 8.78272 7.92137C9.61125 8.29477 10.3316 8.86996 10.8772 9.59369V0.204111H13.3295V24.3412H10.9103ZM6.68318 9.62664C3.03505 9.62664 2.45602 12.7577 2.45602 16.0014C2.45602 19.245 3.03781 22.3734 6.68318 22.3734C10.3285 22.3734 10.8772 19.2569 10.8772 16.0023C10.8772 12.7477 10.3313 9.62664 6.68318 9.62664Z" fill="#1AAF71"/>
<path d="M33.6884 22.0338C32.0271 23.6418 29.8001 24.5416 27.4816 24.5416C25.1631 24.5416 22.9361 23.6418 21.2748 22.0338C18.9909 19.7631 18.9909 17.3898 18.9909 12.2726C18.9909 7.15546 18.9909 4.77855 21.2637 2.5078C22.9251 0.899824 25.152 6.10352e-05 27.4705 6.10352e-05C29.7891 6.10352e-05 32.016 0.899824 33.6773 2.5078C35.9612 4.77855 35.9612 7.1518 35.9612 12.2726C35.9612 17.3935 35.9723 19.7631 33.6884 22.0338ZM31.6761 4.03536C31.126 3.48655 30.4723 3.05109 29.7526 2.75396C29.0329 2.45684 28.2613 2.30389 27.482 2.30389C26.7028 2.30389 25.9311 2.45684 25.2114 2.75396C24.4917 3.05109 23.8381 3.48655 23.288 4.03536C21.7516 5.59129 21.5832 7.22136 21.5832 12.2726C21.5832 17.3239 21.7516 18.954 23.288 20.5099C24.4004 21.6157 25.909 22.2368 27.482 22.2368C29.055 22.2368 30.5636 21.6157 31.6761 20.5099C33.2088 18.954 33.3809 17.3203 33.3809 12.2726C33.3809 7.22502 33.2079 5.59495 31.6761 4.03536Z" fill="#1AAF71"/>
<path d="M51.0066 10.8476C50.6523 10.4336 50.2057 10.1076 49.7022 9.89566C49.1988 9.68369 48.6525 9.59156 48.1069 9.62664C45.6546 9.62664 44.074 11.5587 44.074 14.1031V24.3412H41.618V7.65427H44.074V9.69529C44.6188 8.97312 45.331 8.39252 46.15 8.00289C46.969 7.61327 47.8706 7.42616 48.778 7.45749C49.5234 7.41179 50.2698 7.52721 50.966 7.79581C51.6623 8.06441 52.2916 8.47981 52.8109 9.01342L51.0066 10.8476Z" fill="#1AAF71"/>
<path d="M60.2121 31.9991C59.1577 32.052 58.1042 31.88 57.1222 31.4946C56.1401 31.1093 55.2524 30.5196 54.5185 29.765L56.1203 28.209C56.6285 28.7635 57.2534 29.1998 57.9504 29.4871C58.6474 29.7743 59.3995 29.9055 60.1532 29.8711C63.3945 29.8711 64.7559 27.5967 64.7559 24.7677V22.1382C64.2176 22.8649 63.5047 23.4459 62.6823 23.828C61.8599 24.2101 60.9543 24.3812 60.0483 24.3256C58.5546 24.3706 57.102 23.8359 55.9979 22.8347C54.3151 21.1433 53.9377 18.5915 53.9377 15.8687C53.9377 13.1458 54.3059 10.5794 55.9868 8.91732C57.1106 7.92488 58.5766 7.40251 60.0786 7.45932C60.984 7.38968 61.8921 7.55261 62.7159 7.93246C63.5396 8.31232 64.2513 8.89635 64.7826 9.62847V7.65427H67.2019V24.8482C67.2 28.9852 64.6077 31.9991 60.2121 31.9991ZM60.5803 9.62573C56.9322 9.62573 56.3863 12.7458 56.3863 15.8659C56.3863 18.986 56.9322 22.1025 60.5803 22.1025C64.2285 22.1025 64.7412 18.9824 64.7412 15.8659C64.7412 12.7495 64.2349 9.62573 60.5877 9.62573H60.5803Z" fill="#1AAF71"/>
<path d="M28.9623 11.9743L28.8343 11.847L28.7055 11.7153C28.573 11.8646 28.4101 11.9843 28.2276 12.0662C28.0451 12.1482 27.8471 12.1905 27.6468 12.1905C27.4465 12.1905 27.2486 12.1482 27.066 12.0662C26.8835 11.9843 26.7206 11.8646 26.5882 11.7153L26.4602 11.8461L26.3323 11.9734C26.4854 12.0971 26.6089 12.2532 26.6937 12.4304C26.7785 12.6076 26.8225 12.8013 26.8225 12.9975C26.8225 13.1937 26.7785 13.3875 26.6937 13.5646C26.6089 13.7418 26.4854 13.8979 26.3323 14.0217L26.5891 14.2844C26.7215 14.135 26.8844 14.0154 27.067 13.9334C27.2495 13.8515 27.4475 13.8091 27.6477 13.8091C27.848 13.8091 28.046 13.8515 28.2285 13.9334C28.411 14.0154 28.5739 14.135 28.7064 14.2844L28.9632 14.0217C28.8107 13.8976 28.6877 13.7413 28.6033 13.5642C28.5189 13.3871 28.4752 13.1935 28.4752 12.9975C28.4752 12.8015 28.5189 12.608 28.6033 12.4309C28.6877 12.2538 28.8107 12.0975 28.9632 11.9734L28.9623 11.9743Z" fill="#1AAF71"/>
<path d="M32.0452 11.4526V10.9712C32.0399 10.8368 32.0264 10.703 32.0047 10.5703C31.9878 10.4009 31.9421 10.2356 31.8694 10.0815C31.8006 9.93074 31.7049 9.79366 31.5868 9.67698C31.4644 9.56081 31.3197 9.47024 31.1615 9.41064C30.991 9.33979 30.8077 9.30489 30.6229 9.30814C30.4371 9.30491 30.2525 9.3398 30.0807 9.41064C29.9244 9.47355 29.7823 9.56691 29.6628 9.68522C29.5447 9.8019 29.4489 9.93898 29.3802 10.0898C29.3112 10.2409 29.268 10.4023 29.2523 10.5675C29.2338 10.6911 29.2228 10.8229 29.2154 10.9574C29.2081 11.092 29.2154 11.232 29.2154 11.3729V11.4388L32.0452 11.4526Z" fill="#1AAF71"/>
<path d="M30.6156 9.29715C31.2552 9.29715 31.7736 8.78166 31.7736 8.14576C31.7736 7.50987 31.2552 6.99438 30.6156 6.99438C29.976 6.99438 29.4575 7.50987 29.4575 8.14576C29.4575 8.78166 29.976 9.29715 30.6156 9.29715Z" fill="#1AAF71"/>
<path d="M26.1942 11.4526V10.9712C26.1909 10.8406 26.1798 10.7105 26.1611 10.5813C26.1437 10.4124 26.0992 10.2474 26.0294 10.0925C25.9579 9.94243 25.861 9.80562 25.7431 9.68797C25.6243 9.57054 25.4836 9.47727 25.3289 9.41339C25.079 9.30692 24.803 9.27618 24.5356 9.32503C24.2681 9.37387 24.0212 9.50013 23.8256 9.68797C23.7087 9.80562 23.6131 9.94248 23.543 10.0925C23.4693 10.2431 23.4199 10.4044 23.3966 10.5703C23.3966 10.6938 23.3709 10.8256 23.3598 10.9602C23.3488 11.0947 23.3598 11.2347 23.3598 11.3757V11.4416L26.1942 11.4526Z" fill="#1AAF71"/>
<path d="M24.7609 9.29715C25.4005 9.29715 25.919 8.78166 25.919 8.14576C25.919 7.50987 25.4005 6.99438 24.7609 6.99438C24.1213 6.99438 23.6028 7.50987 23.6028 8.14576C23.6028 8.78166 24.1213 9.29715 24.7609 9.29715Z" fill="#1AAF71"/>
<path d="M26.1942 17.9902V17.5088C26.1912 17.3795 26.1801 17.2505 26.1611 17.1226C26.1441 16.9525 26.0997 16.7862 26.0294 16.6302C25.9579 16.4801 25.861 16.3433 25.7431 16.2256C25.6234 16.1093 25.4829 16.0162 25.3289 15.951C25.079 15.8446 24.803 15.8138 24.5356 15.8627C24.2681 15.9115 24.0212 16.0378 23.8256 16.2256C23.7087 16.3433 23.6131 16.4801 23.543 16.6302C23.4665 16.7887 23.4171 16.9589 23.3966 17.1336C23.3966 17.2534 23.3709 17.3852 23.3598 17.5198C23.3488 17.6543 23.3598 17.7944 23.3598 17.939V18.0012L26.1942 17.9902Z" fill="#1AAF71"/>
<path d="M24.7609 15.833C25.4005 15.833 25.919 15.3175 25.919 14.6816C25.919 14.0457 25.4005 13.5302 24.7609 13.5302C24.1213 13.5302 23.6028 14.0457 23.6028 14.6816C23.6028 15.3175 24.1213 15.833 24.7609 15.833Z" fill="#1AAF71"/>
<path d="M31.9393 17.9884V17.507C31.9321 17.3811 31.9173 17.2558 31.8951 17.1317C31.8788 16.9611 31.833 16.7945 31.7598 16.6393C31.6911 16.4885 31.5953 16.3514 31.4772 16.2348C31.3568 16.1176 31.2149 16.0244 31.0593 15.9602C30.8881 15.8922 30.7051 15.8586 30.5208 15.8614C30.3353 15.8586 30.151 15.8922 29.9786 15.9602C29.8229 16.0244 29.6811 16.1176 29.5606 16.2348C29.4425 16.3514 29.3467 16.4885 29.278 16.6393C29.2061 16.7947 29.1616 16.9613 29.1464 17.1317C29.1464 17.2516 29.1169 17.3834 29.1096 17.518C29.1022 17.6525 29.1096 17.7925 29.1096 17.9371V17.9994L31.9393 17.9884Z" fill="#1AAF71"/>
<path d="M30.5088 15.833C31.1484 15.833 31.6669 15.3175 31.6669 14.6816C31.6669 14.0457 31.1484 13.5302 30.5088 13.5302C29.8692 13.5302 29.3508 14.0457 29.3508 14.6816C29.3508 15.3175 29.8692 15.833 30.5088 15.833Z" fill="#1AAF71"/>
</g>
<defs>
<clipPath id="clip0">
<rect width="67.2" height="32" fill="white"/>
</clipPath>
</defs>
</svg>
