<svg width="16" height="14" viewBox="0 0 16 14" fill="none" xmlns="http://www.w3.org/2000/svg">
    <path d="M14 5.33335H9.79329L10.4266 2.28669L10.4466 2.07335C10.4466 1.80002 10.3333 1.54669 10.1533 1.36669L9.44663 0.666687L5.05996 5.06002C4.81329 5.30002 4.66663 5.63335 4.66663 6.00002V12.6667C4.66663 13.4 5.26663 14 5.99996 14H12C12.5533 14 13.0266 13.6667 13.2266 13.1867L15.24 8.48669C15.3 8.33335 15.3333 8.17335 15.3333 8.00002V6.66669C15.3333 5.93335 14.7333 5.33335 14 5.33335ZM14 8.00002L12 12.6667H5.99996V6.00002L8.89329 3.10669L8.15329 6.66669H14V8.00002ZM0.666626 6.00002H3.33329V14H0.666626V6.00002Z" fill="#1AAF71"/>
</svg>