<svg width="16" height="14" viewBox="0 0 16 14" fill="none" xmlns="http://www.w3.org/2000/svg">
    <path d="M10.0001 0H4.00008C3.44675 0 2.97341 0.333333 2.77341 0.813333L0.760081 5.51333C0.700081 5.66667 0.666748 5.82667 0.666748 6V7.33333C0.666748 8.06667 1.26675 8.66667 2.00008 8.66667H6.20675L5.57341 11.7133L5.55341 11.9267C5.55341 12.2 5.66675 12.4533 5.84675 12.6333L6.55341 13.3333L10.9401 8.94C11.1867 8.7 11.3334 8.36667 11.3334 8V1.33333C11.3334 0.6 10.7334 0 10.0001 0ZM10.0001 8L7.10675 10.8933L7.84675 7.33333H2.00008V6L4.00008 1.33333H10.0001V8ZM12.6667 0H15.3334V8H12.6667V0Z" fill="#E11D48"/>
</svg>